<svg width="175" height="121" viewBox="0 0 175 121" fill="none" xmlns="http://www.w3.org/2000/svg">
<path d="M116.983 96.3218C118.789 97.3636 120.61 98.1733 122.145 99.3606C124.554 101.214 125.704 103.823 125.746 106.89C125.761 108.045 125.674 109.217 125.837 110.363C126.271 113.387 128.159 115.169 131.046 115.887C133.933 116.606 136.853 117.192 139.759 117.843C140.004 117.9 140.243 117.982 140.488 118.03C141.27 118.182 141.574 118.792 141.304 119.386C141.133 119.777 140.449 120.207 140.024 120.179C138.85 120.103 137.682 119.825 136.523 119.571C134.315 119.089 132.088 118.659 129.915 118.051C125.496 116.799 123.404 113.927 123.369 109.302C123.369 108.149 123.423 106.973 123.237 105.844C122.668 102.432 120.317 100.596 117.278 99.4734C115.03 98.6421 115.008 98.6551 113.482 100.47C111.093 103.32 108.712 106.18 106.341 109.048C104.268 111.548 101.804 113.454 98.4333 113.578C96.877 113.634 95.2751 113.361 93.7448 113.011C74.5757 108.708 55.4131 104.376 36.257 100.016C25.8208 97.6502 15.3861 95.2719 4.95287 92.8814C2.13112 92.2302 0.592175 90.4221 0.546592 87.5309C0.487987 83.9885 0.366434 80.4331 0.581322 76.8951C0.674657 75.3496 1.36707 73.7694 2.07034 72.3368C11.1419 53.9332 20.2417 35.539 29.3697 17.1541C29.895 16.0927 30.4116 15.027 30.976 13.9873C33.3636 9.56579 38.013 7.53196 42.9489 8.52608C49.2935 9.80239 55.6576 10.9528 62.0196 12.1358C69.443 13.5076 76.8751 14.8316 84.2985 16.2034C92.1791 17.6606 100.056 19.1337 107.93 20.6227C116.228 22.1986 124.524 23.7809 132.804 25.4349C133.89 25.652 134.893 26.3183 136.21 26.8979C137.764 25.7583 139.601 24.4907 141.35 23.1124C146.878 18.7517 151.791 13.7442 156.459 8.50438C158.597 6.11674 160.618 3.60104 162.722 1.16998C163.19 0.627339 163.59 -0.334229 164.606 0.51881C165.572 1.33278 165.669 1.85155 164.792 2.88691C162.452 5.64355 160.132 8.41538 157.699 11.0852C153.084 16.1734 148.076 20.8908 142.722 25.194C141.259 26.3639 139.718 27.4405 138.177 28.5063C137.495 28.9751 137.189 29.4483 137.213 30.3513C137.302 33.4943 137.248 36.646 137.248 40.0017C137.879 39.7043 138.396 39.5111 138.863 39.2333C144.031 36.1598 148.413 32.1355 152.613 27.8812C159.73 20.6596 165.997 12.7348 171.753 4.39981C172.02 4.01562 172.187 3.54894 172.526 3.23204C172.865 2.91513 173.36 2.55699 173.637 2.65249C174.028 2.78707 174.506 3.30367 174.536 3.69871C174.566 4.29868 174.398 4.89184 174.059 5.38742C171.13 9.45509 168.239 13.5553 165.159 17.5079C160.933 22.9239 156.293 28.0038 151.28 32.702C147.274 36.4636 143.065 39.9756 138.105 42.4479C137.434 42.7822 137.289 43.199 137.289 43.887C137.306 52.0614 137.245 60.2358 137.319 68.4146C137.382 70.8101 136.528 73.1393 134.932 74.9263C131.211 79.2567 127.528 83.6087 123.833 87.9672C123.723 88.1125 123.623 88.2655 123.534 88.4252C125.053 89.1892 126.649 89.7775 128.003 90.713C131.07 92.8315 132.668 95.8204 132.694 99.6124C132.705 101.325 132.49 103.051 133.44 104.665C134.606 106.643 136.349 107.746 138.481 108.271C141.339 108.976 144.228 109.549 147.085 110.259C147.547 110.374 148.133 110.836 148.27 111.264C148.591 112.265 147.81 112.849 146.59 112.577C143.751 111.948 140.909 111.327 138.088 110.624C136.078 110.127 134.194 109.334 132.698 107.817C131.392 106.503 130.617 104.755 130.519 102.905C130.393 101.145 130.41 99.3497 130.059 97.6328C129.314 94.0036 125.759 91.4749 122.001 90.9539C121.813 90.938 121.622 90.9627 121.444 91.0263C121.265 91.09 121.102 91.1911 120.966 91.3229C119.557 93.016 118.216 94.7568 116.983 96.3218ZM98.7936 100.735C99.2386 100.682 99.5273 100.661 99.8094 100.611C102.805 100.086 104.754 98.2601 106.004 95.5881C110.669 85.623 115.366 75.6752 119.978 65.6883C125.088 54.6271 130.153 43.5462 135.173 32.4459C136.516 29.4961 135.377 27.2973 132.231 26.6548C130.612 26.3249 128.99 26.0036 127.365 25.691C121.122 24.4972 114.878 23.307 108.631 22.1204C102.275 20.9165 95.919 19.7162 89.5621 18.5194C82.8507 17.2591 76.1385 16.0052 69.4256 14.7578C60.485 13.106 51.5357 11.502 42.6103 9.82409C38.9724 9.14253 35.8207 9.9934 33.4439 12.813C32.274 14.1891 31.4795 15.9039 30.6721 17.5405C23.0519 32.9155 15.4498 48.2976 7.86579 63.6871C6.12933 67.2012 4.25395 70.6481 2.55221 74.1797C1.39963 76.5673 2.31996 79.4216 5.32621 79.9621C9.63699 80.7392 13.9 81.7941 18.1804 82.7426C33.428 86.12 48.6763 89.4996 63.9254 92.8814C73.4955 95.0151 83.0547 97.2009 92.6205 99.3606C94.7216 99.8446 96.8292 100.3 98.7936 100.735ZM99.5642 101.896C98.544 101.802 97.6302 101.811 96.7598 101.62C92.4816 100.689 88.2185 99.6905 83.9533 98.7398C70.2063 95.6793 56.4593 92.6253 42.7123 89.5778C31.9896 87.1901 21.2518 84.8871 10.5508 82.4148C7.64005 81.742 4.49271 81.7007 1.8815 79.6799C1.8815 82.341 1.85762 84.9045 1.8815 87.468C1.90972 89.8556 2.91036 91.0755 5.19381 91.5921C18.0436 94.5006 30.8949 97.4071 43.7477 100.311C60.5335 104.114 77.3106 107.921 94.0791 111.731C95.859 112.134 97.6475 112.651 99.5533 112.078L99.5642 101.896Z" fill="#2E2E2E"/>
<path d="M98.7921 100.734C96.8386 100.3 94.7201 99.8445 92.6189 99.3691C83.0532 97.2094 73.494 95.028 63.9239 92.8899C48.6806 89.4894 33.4323 86.1069 18.1789 82.7425C13.8985 81.7939 9.63545 80.739 5.32468 79.962C2.31842 79.4215 1.3981 76.5715 2.55068 74.1795C4.25241 70.648 6.12562 67.2011 7.86426 63.6869C15.4714 48.3091 23.0735 32.9269 30.6706 17.5404C31.4802 15.9038 32.2746 14.189 33.4337 12.8128C35.8213 9.99109 38.9622 9.14239 42.6001 9.82395C51.5364 11.5018 60.4857 13.1059 69.4263 14.7577C76.1406 15.9964 82.8528 17.2502 89.5628 18.5193C95.9168 19.7131 102.272 20.9135 108.629 22.1203C114.876 23.3054 121.123 24.4956 127.37 25.6909C128.996 26.0006 130.619 26.3218 132.236 26.6546C135.382 27.3058 136.521 29.4959 135.178 32.4458C130.127 43.5331 125.063 54.6139 119.983 65.6882C115.371 75.6729 110.674 85.6228 106.009 95.588C104.759 98.26 102.81 100.085 99.8144 100.611C99.5257 100.661 99.237 100.682 98.7921 100.734ZM104.542 68.3689C107.741 68.5512 108.992 67.1121 109.901 65.1369C113.448 57.4284 117.005 49.725 120.574 42.0267C121.459 40.1036 122.393 38.1956 123.135 36.2161C123.73 34.6294 122.944 33.149 121.355 32.5782C120.468 32.2863 119.56 32.0607 118.64 31.9031C106.657 29.5372 94.6716 27.1749 82.6842 24.8162C80.2119 24.3278 78.2757 25.2503 77.1753 27.5359C76.1768 29.6066 75.1979 31.6904 74.2124 33.7698C70.7959 40.9805 67.3534 48.1673 63.9781 55.4083C62.8559 57.822 63.7741 59.502 66.3484 60.099C68.3432 60.5591 70.3466 60.9672 72.3479 61.4013C80.8739 63.2608 89.4 65.121 97.926 66.9819C100.383 67.5224 102.851 68.0172 104.542 68.3689ZM18.2982 65.8467C18.1376 68.3168 18.6933 70.8021 20.6859 72.8359C22.6394 74.8264 25.1074 75.6577 27.7837 75.8183C31.7797 76.0549 35.3634 74.9935 38.0831 71.8679C40.6617 68.9028 40.2103 64.922 37.0542 62.5951C35.8778 61.7269 34.5711 61.0258 33.7984 59.6909C33.6291 59.3979 33.2753 59.2025 32.9887 58.9855C31.0786 57.5398 28.8972 57.1926 26.5573 57.2663C21.4195 57.4291 18.2982 60.5396 18.2982 65.8467ZM50.9481 19.3962C49.5221 19.5807 48.0916 19.7348 46.6699 19.9519C37.1563 21.3975 29.2163 29.4091 27.4972 37.5097C26.1948 43.659 28.7995 50.0144 34.2433 53.1857C38.2676 55.5299 42.6239 56.2245 47.1583 55.3302C55.2958 53.7348 61.432 49.3698 65.033 41.7836C66.9865 37.6595 67.4641 33.3183 65.7363 29.0119C63.3335 23.0037 57.7594 19.5156 50.9481 19.3875V19.3962ZM52.4675 78.4187C52.5847 80.2268 53.5702 81.3685 55.5063 81.8135C57.9171 82.3691 60.3294 82.9205 62.7431 83.4674C73.2414 85.8363 83.7427 88.2131 94.2469 90.5978C95.8748 90.9668 97.8479 90.1637 98.588 88.679C100.494 84.8913 102.378 81.082 104.149 77.24C105.117 75.1367 103.865 72.99 101.566 72.4648C98.7993 71.8454 96.0311 71.2297 93.2614 70.6176C83.2739 68.4166 73.2834 66.2149 63.2901 64.0125C60.605 63.4243 59.1833 64.1428 57.9591 66.6172C56.3355 69.9035 54.7249 73.1955 53.1274 76.4934C52.8685 77.1186 52.6467 77.7586 52.4632 78.41L52.4675 78.4187Z" fill="#D0D0D0"/>
<path d="M99.5652 101.896V112.078C97.6594 112.651 95.8752 112.134 94.091 111.731C77.3124 107.932 60.5352 104.126 43.7595 100.311C30.9097 97.3983 18.0584 94.4919 5.20568 91.592C2.92223 91.0754 1.92159 89.8555 1.89338 87.4679C1.86082 84.9044 1.89338 82.3409 1.89338 79.6798C4.49807 81.7006 7.65193 81.7419 10.5627 82.4147C21.2636 84.887 32.0015 87.19 42.7242 89.5777C56.4712 92.6281 70.2182 95.6821 83.9652 98.7397C88.2391 99.6904 92.5021 100.693 96.7717 101.62C97.6312 101.811 98.545 101.802 99.5652 101.896Z" fill="white"/>
<path d="M104.543 68.369C102.852 68.0174 100.384 67.5225 97.9271 66.9885C89.3997 65.1348 80.8729 63.2747 72.3468 61.408C70.3456 60.9738 68.3421 60.5593 66.3474 60.1056C63.773 59.5087 62.8549 57.8287 63.9771 55.415C67.3545 48.1674 70.797 40.9806 74.2135 33.7699C75.199 31.6905 76.1671 29.6068 77.1764 27.536C78.2769 25.2482 80.2152 24.3279 82.6853 24.8163C94.6684 27.1866 106.654 29.5489 118.641 31.9032C119.562 32.0608 120.469 32.2864 121.356 32.5783C122.945 33.1492 123.731 34.6295 123.136 36.2162C122.394 38.1958 121.461 40.1037 120.575 42.0268C117.022 49.7382 113.463 57.4416 109.898 65.137C108.993 67.1122 107.743 68.5513 104.543 68.369ZM122.079 35.539C122.001 34.2648 121.3 33.8025 120.343 33.6115C116.742 32.8909 113.154 32.1637 109.557 31.4539C100.567 29.6784 91.576 27.9058 82.5855 26.136C80.3693 25.7019 79.1755 26.2619 78.2161 28.2892C75.0036 35.0904 71.7883 41.8821 68.57 48.6645C67.4023 51.1346 66.1824 53.5852 65.0754 56.077C64.4242 57.5204 64.9256 58.3995 66.4581 58.8054C66.7359 58.8792 67.0137 58.953 67.2937 59.0225C78.8702 61.5404 90.4531 64.0575 102.043 66.5739C102.885 66.7563 103.729 66.9386 104.582 67.0601C106.796 67.3749 107.634 66.9299 108.589 64.8765C112.935 55.5155 117.278 46.1531 121.619 36.7892C121.819 36.3399 121.96 35.858 122.079 35.539Z" fill="#2E2E2E"/>
<path d="M18.2995 65.8468C18.2995 60.5332 21.4208 57.4293 26.5651 57.2665C28.905 57.1927 31.0864 57.54 32.9965 58.9856C33.283 59.2026 33.6477 59.398 33.8061 59.691C34.5767 61.0259 35.8834 61.7249 37.062 62.5953C40.218 64.9308 40.6695 68.903 38.0909 71.868C35.3711 74.9936 31.7962 76.055 27.7915 75.8185C25.113 75.6622 22.6407 74.8265 20.6872 72.8361C18.6946 70.8022 18.1389 68.3169 18.2995 65.8468ZM27.6916 58.3388C24.9198 58.4147 22.5908 59.0963 20.7588 61.0086C19.1287 62.7103 19.1482 64.9265 20.7783 66.6022C24.0103 69.9231 31.0973 69.2633 33.6238 65.4062C34.5962 63.9237 34.6179 62.63 33.6065 61.1866C32.1239 59.0702 29.9034 58.4972 27.6916 58.3388Z" fill="#2E2E2E"/>
<path d="M50.9503 19.3877C57.7616 19.5136 63.3356 23.0039 65.7385 29.0034C67.4749 33.3163 66.9931 37.6466 65.0352 41.7751C61.4342 49.3613 55.298 53.7263 47.1691 55.3303C42.6348 56.2203 38.2698 55.53 34.2542 53.1858C28.8104 50.0146 26.2013 43.6591 27.508 37.5099C29.2184 29.4006 37.1584 21.389 46.6721 19.9499C48.0938 19.7328 49.5242 19.5722 50.9503 19.3877ZM31.7862 30.9135C29.4463 34.369 28.0962 38.0395 28.5412 42.2895C28.7583 42.2569 28.8559 42.2504 28.9558 42.2222C30.0975 41.9031 31.2262 41.5363 32.3831 41.2889C32.7109 41.2194 33.1125 41.4951 33.4815 41.6144C33.221 41.9031 33.0018 42.2526 32.6914 42.4675C32.4418 42.6411 32.0793 42.6542 31.7689 42.7431C30.7487 43.0318 29.7307 43.3249 28.4457 43.6917C29.3139 45.4021 29.8653 47.0973 30.892 48.4236C34.9661 53.6959 40.6292 54.9592 46.8674 54.0996C51.6796 53.4376 55.7972 51.1368 59.2397 47.7355C63.709 43.3292 66.1965 38.1155 65.1589 31.6884C64.3536 26.696 59.867 22.1378 54.8291 21.3977C54.5532 21.9791 54.2445 22.5443 53.9045 23.0907C53.7503 23.3078 53.3857 23.3989 53.1187 23.5465C53.0427 23.234 52.8582 22.8954 52.919 22.6175C53.0679 22.1094 53.2581 21.6143 53.4877 21.1372C50.8309 20.3688 45.1483 21.0829 42.7498 22.4808C43.014 23.1364 43.2422 23.8059 43.4336 24.4864C43.4878 24.7186 43.2317 25.0225 43.1188 25.296C42.8692 25.1549 42.5024 25.079 42.3939 24.8619C42.0704 24.2303 41.8491 23.5487 41.5604 22.8107C38.001 24.3578 34.9067 26.8065 32.5828 29.915C33.1546 30.3277 33.7051 30.7689 34.2325 31.2369C34.4126 31.4084 34.404 31.7774 34.4799 32.0574C34.1956 32.0791 33.8526 32.2158 33.6377 32.1051C33.0343 31.7904 32.4852 31.3758 31.7862 30.9135Z" fill="#2E2E2E"/>
<path d="M52.4648 78.4101C52.6487 77.7616 52.8705 77.1246 53.129 76.5021C54.7208 73.2 56.3314 69.9079 57.9608 66.626C59.185 64.1472 60.6067 63.4287 63.2917 64.0213C73.2894 66.2092 83.2828 68.4124 93.2718 70.6307C96.04 71.2428 98.8082 71.8585 101.576 72.4779C103.875 72.9945 105.127 75.1412 104.159 77.2532C102.388 81.1038 100.504 84.9045 98.5984 88.6921C97.8495 90.179 95.8765 90.9799 94.2572 90.6109C83.7516 88.2363 73.2467 85.8566 62.7425 83.4719C60.3187 82.9162 57.9036 82.3627 55.4971 81.8114C53.5675 81.3599 52.5821 80.2182 52.4648 78.4101ZM62.1304 65.1087C60.7326 65.0588 59.9186 65.6471 59.3912 66.6455C58.9571 67.4725 58.5815 68.3342 58.1691 69.1764C56.8386 71.8962 55.4733 74.6029 54.1774 77.3378C53.4611 78.8464 54.0016 80.0098 55.5536 80.4569C56.3827 80.6957 57.2358 80.8455 58.0801 81.0365C70.1225 83.7642 82.1642 86.4911 94.2051 89.2174C95.9047 89.6038 96.9683 89.098 97.7345 87.5352C99.3689 84.199 100.99 80.8541 102.618 77.5201C103.704 75.317 103.118 74.121 100.734 73.6001C89.9739 71.2399 79.2165 68.874 68.462 66.5023L62.1304 65.1087Z" fill="#2E2E2E"/>
<path d="M122.079 35.539C121.96 35.858 121.819 36.3399 121.611 36.7892C117.269 46.1516 112.928 55.5112 108.587 64.8678C107.632 66.9212 106.794 67.3662 104.58 67.0514C103.727 66.9299 102.883 66.7476 102.041 66.5652C90.4584 64.0517 78.8762 61.5367 67.294 59.0203C67.014 58.9595 66.7361 58.8857 66.4583 58.8032C64.9259 58.3973 64.4288 57.5183 65.0757 56.0748C66.1935 53.583 67.4025 51.1324 68.5703 48.6623C71.7871 41.8727 74.9995 35.0817 78.2077 28.2892C79.1671 26.2619 80.3609 25.6845 82.5771 26.136C91.5719 27.9188 100.565 29.6914 109.557 31.4539C113.15 32.1637 116.742 32.8908 120.334 33.6115C121.3 33.8047 122.001 34.2757 122.079 35.539ZM103.067 62.8166C103.284 62.5887 103.719 62.3066 103.901 61.9093C105.175 59.2135 106.397 56.4937 107.636 53.7827C110.115 48.3635 112.597 42.9443 115.082 37.525C115.455 36.7154 115.283 36.3725 114.378 36.2097C112.401 35.8537 110.439 35.4065 108.474 34.9833C107.519 34.7662 106.872 34.9464 106.414 35.9666C104.478 40.2947 102.46 44.5859 100.473 48.8902C98.7718 52.5758 97.0729 56.2622 95.377 59.9493C95.1599 60.4355 94.7887 60.9912 95.6895 61.193C98.0338 61.7162 100.382 62.2262 103.067 62.8166ZM83.2 58.1759C83.4605 58.3387 83.6341 58.5124 83.8208 58.5558C86.1303 59.0746 88.4398 59.6042 90.7666 60.0405C91.0814 60.0991 91.6805 59.7344 91.8281 59.4175C94.6238 53.4289 97.363 47.4142 100.146 41.4191C100.539 40.5725 100.172 40.3077 99.4511 40.1601C97.3782 39.726 95.3032 39.3266 93.2346 38.886C92.527 38.7362 92.1081 38.912 91.8085 39.6196C91.1769 41.1065 90.4541 42.5564 89.7725 44.0216C87.5976 48.71 85.4227 53.3985 83.2 58.1759ZM79.3494 57.5964C79.5339 57.3793 79.853 57.1232 80.0006 56.7955C81.7913 52.9557 83.5451 49.0986 85.338 45.261C85.6832 44.5186 85.4487 44.1974 84.7238 44.0476C82.6856 43.6287 80.6474 43.2163 78.6157 42.7713C77.7475 42.5847 77.2678 42.793 76.8684 43.6721C75.349 47.0409 73.7211 50.364 72.1322 53.7045C71.1598 55.7471 71.1576 55.7449 73.3217 56.2463C73.3933 56.2615 73.4563 56.3027 73.5257 56.3179L79.3494 57.5964Z" fill="white"/>
<path d="M27.6926 58.3387C29.9044 58.4972 32.1249 59.0702 33.6074 61.1865C34.6189 62.63 34.5972 63.9237 33.6248 65.4062C31.1069 69.2633 24.0113 69.9231 20.7793 66.6021C19.1492 64.9265 19.1296 62.7103 20.7597 61.0086C22.5917 59.0963 24.9207 58.4147 27.6926 58.3387Z" fill="white"/>
<path d="M31.7852 30.9135C32.4841 31.3758 33.0333 31.7817 33.6367 32.1051C33.8538 32.2158 34.1945 32.0791 34.4789 32.0574C34.4029 31.7774 34.4116 31.4062 34.2314 31.2369C33.7041 30.7688 33.1535 30.3277 32.5818 29.915C34.9074 26.8056 38.0041 24.3569 41.5658 22.8107C41.8545 23.5487 42.0759 24.2302 42.3993 24.8619C42.5079 25.0789 42.8747 25.1549 43.1243 25.296C43.2372 25.0225 43.4933 24.7186 43.439 24.4864C43.2477 23.8059 43.0194 23.1364 42.7553 22.4808C45.1538 21.0829 50.8364 20.3688 53.4932 21.1372C53.2635 21.6143 53.0733 22.1094 52.9245 22.6175C52.8637 22.8975 53.0482 23.234 53.1242 23.5465C53.3912 23.3989 53.7558 23.3164 53.9099 23.0907C54.25 22.5443 54.5587 21.9791 54.8346 21.3976C59.8725 22.1378 64.3591 26.6787 65.1644 31.6884C66.2019 38.1155 63.7144 43.3292 59.2452 47.7355C55.7962 51.1368 51.6786 53.4376 46.8729 54.0996C40.6346 54.9678 34.9716 53.6959 30.8974 48.4235C29.8707 47.0973 29.3172 45.4021 28.4512 43.6917C29.7362 43.3249 30.7542 43.0405 31.7743 42.7431C32.0847 42.6541 32.4472 42.6411 32.6968 42.4675C33.0072 42.2504 33.2265 41.9031 33.4869 41.6144C33.1179 41.4951 32.7164 41.2194 32.3886 41.2888C31.2317 41.5363 30.103 41.9031 28.9613 42.2222C28.8614 42.2504 28.7572 42.2569 28.5467 42.2895C28.0865 38.0395 29.4453 34.369 31.7852 30.9135ZM63.4952 29.0229L63.3823 28.8492C63.1766 28.8764 62.9728 28.917 62.7724 28.9708C58.6591 30.3448 54.5481 31.7383 50.437 33.1079C50.0571 33.2316 49.5688 33.338 49.228 33.2165C46.8273 32.3764 44.0772 33.8025 42.7466 35.6041C40.9602 38.0156 41.9522 41.0002 44.813 41.9118C47.116 42.6455 50.0398 41.3583 51.251 39.1204C51.5007 38.6125 51.8464 38.1577 52.269 37.7812C54.3809 36.0925 56.5385 34.458 58.6743 32.7997C60.2849 31.5429 61.889 30.2797 63.4952 29.0229Z" fill="white"/>
<path d="M62.1304 65.1088L68.4619 66.5023C79.2193 68.8682 89.9767 71.2342 100.734 73.6001C103.122 74.121 103.699 75.317 102.618 77.5202C100.984 80.8542 99.3623 84.199 97.7344 87.5352C96.9682 89.098 95.9046 89.6038 94.205 89.2174C82.1627 86.4926 70.121 83.7656 58.0801 81.0365C57.2357 80.8455 56.3827 80.6957 55.5535 80.457C54.0015 80.0098 53.4611 78.8464 54.1773 77.3378C55.4797 74.6007 56.8385 71.8962 58.169 69.1764C58.5815 68.3343 58.9526 67.4725 59.3911 66.6455C59.9185 65.6471 60.7325 65.0589 62.1304 65.1088ZM88.7135 83.0443L91.4723 77.7915C90.1048 77.1403 89.9854 77.175 89.3907 78.2929C89.0043 79.0244 88.6527 79.7776 88.2164 80.4787C87.6195 81.4402 86.7686 81.616 85.8092 80.9887L87.8648 76.9254C86.8554 76.3546 86.1999 76.4436 85.7528 77.5354C85.3751 78.4644 84.8021 79.3131 84.3593 80.2182C83.7081 81.5401 84.0597 82.2325 85.5357 82.5299C86.5299 82.7317 87.5414 82.8576 88.7135 83.0443ZM69.0654 78.6272C70.919 78.651 72.5123 77.2727 72.8899 75.3083C73.0853 74.2947 72.7271 73.5502 71.7764 73.1117C70.0052 72.2956 67.9388 73.0683 66.9208 74.9285C65.7769 77.0209 66.6908 78.5968 69.0654 78.6272ZM80.691 81.2492C82.5121 81.2319 84.2399 79.7298 84.5112 77.9152C84.6632 76.8972 84.2508 76.1787 83.3022 75.7598C81.5288 74.9871 79.4299 75.8011 78.4662 77.6417C77.357 79.7515 78.2969 81.2753 80.691 81.2492ZM95.1579 77.1012C94.4764 76.6476 93.9533 76.6671 93.4215 77.2944C93.2044 77.5527 92.7204 77.5723 92.4143 77.7828C91.9772 78.1182 91.5584 78.4769 91.1597 78.8572L92.2732 79.363C92.0214 79.8318 91.8022 80.2442 91.5808 80.6545C91.3377 81.0995 91.0599 81.5227 90.8558 81.985C90.3978 83.0052 90.6757 83.5218 91.8391 83.8886C93.1263 84.2945 93.3368 84.1817 93.632 82.9466L92.5337 82.4126C93.6884 79.6213 93.7405 79.5714 95.2599 79.8427L95.8569 78.6771L94.7499 78.243C94.8931 77.8327 95.0233 77.4702 95.1579 77.1012ZM73.6149 79.6604L77.522 72.1762L75.9049 71.8853L72.0217 79.3109L73.6149 79.6604ZM74.6785 79.7667C76.1349 80.3723 76.1371 80.3723 76.7622 79.1872C77.7028 77.4044 78.6434 75.6216 79.584 73.8389C79.7577 73.5089 79.8987 73.1616 80.1397 72.6364C79.3756 72.8317 78.7505 71.9852 78.2621 72.9272C77.0813 75.1933 75.8918 77.4485 74.6785 79.7667ZM61.5161 76.8625C62.6708 77.5723 63.2656 77.1403 63.6367 76.1093C63.7742 75.7772 63.9375 75.4564 64.1251 75.1499C65.0389 73.4742 65.4145 73.2745 67.3289 73.4742C67.5004 73.1204 67.6784 72.7514 68.0061 72.0785L65.7031 72.2261C65.345 71.9461 65.1475 71.6683 64.9803 71.6856C64.6222 71.7269 64.0969 71.8159 63.9602 72.0633C63.0984 73.6305 62.3257 75.2476 61.5161 76.8625Z" fill="white"/>
<path d="M103.066 62.8166C100.381 62.2262 98.032 61.7161 95.6856 61.193C94.7848 60.9912 95.1494 60.4355 95.373 59.9493C97.0689 56.2607 98.7678 52.5744 100.47 48.8902C102.456 44.5859 104.474 40.2947 106.41 35.9665C106.868 34.9464 107.515 34.7771 108.47 34.9833C110.435 35.4065 112.397 35.8515 114.374 36.2096C115.279 36.3724 115.46 36.7154 115.078 37.525C112.583 42.9384 110.101 48.3577 107.632 53.7827C106.393 56.4937 105.171 59.2091 103.897 61.9093C103.71 62.3065 103.28 62.5887 103.066 62.8166ZM102.733 61.4079C106.413 53.3594 110.048 45.4042 113.697 37.4252C111.932 37.0518 110.224 36.6589 108.488 36.3594C108.302 36.3528 108.117 36.3919 107.95 36.4733C107.783 36.5546 107.638 36.6758 107.528 36.8261C103.912 44.5403 100.331 52.2915 96.7036 60.1056L102.733 61.4079Z" fill="#2E2E2E"/>
<path d="M83.1992 58.1759C85.4176 53.4006 87.5925 48.71 89.7717 44.0215C90.4533 42.5564 91.1761 41.1065 91.8077 39.6196C92.1073 38.912 92.5262 38.7362 93.2338 38.8859C95.3024 39.3201 97.3775 39.7368 99.4504 40.1601C100.171 40.3077 100.536 40.5725 100.145 41.419C97.3623 47.4142 94.623 53.4288 91.8273 59.4175C91.6797 59.7344 91.0806 60.099 90.7659 60.0404C88.439 59.6063 86.1295 59.0745 83.82 58.5558C83.6333 58.5123 83.464 58.3387 83.1992 58.1759ZM84.953 57.4401C86.6092 57.7961 88.1655 58.0913 89.6936 58.4798C90.462 58.6773 90.8527 58.5189 91.1891 57.7765C93.249 53.2595 95.3545 48.7643 97.4339 44.2603C97.868 43.327 98.2631 42.3828 98.7059 41.3756L92.9972 40.1992C90.3122 45.9555 87.6533 51.6555 84.9574 57.4401H84.953Z" fill="#2E2E2E"/>
<path d="M79.3548 57.5964L73.5355 56.3179C73.4661 56.3027 73.4031 56.2614 73.3315 56.2463C71.1609 55.7449 71.1609 55.747 72.142 53.7045C73.7309 50.364 75.3545 47.0408 76.8782 43.6721C77.2776 42.8038 77.7638 42.5868 78.6255 42.7713C80.6572 43.2163 82.6954 43.6395 84.7335 44.0476C85.4585 44.1974 85.6929 44.5186 85.3478 45.2609C83.5549 49.0985 81.8011 52.9557 80.0104 56.7954C79.8584 57.1232 79.5393 57.375 79.3548 57.5964ZM78.8882 56.1638L83.8979 45.2371C82.8126 44.994 81.8532 44.7878 80.9068 44.5729C78.2023 43.9521 78.2023 43.9521 77.0106 46.4591C75.6866 49.2374 74.3647 52.018 73.0037 54.881L78.8882 56.1638Z" fill="#2E2E2E"/>
<path d="M63.4964 29.0229C61.8902 30.2797 60.2861 31.5429 58.6756 32.7954C56.5397 34.4537 54.3822 36.0881 52.2702 37.7768C51.8476 38.1534 51.5019 38.6082 51.2522 39.1161C50.041 41.354 47.1172 42.6411 44.8142 41.9075C41.9534 40.9958 40.9615 38.0004 42.7479 35.5998C44.0784 33.8025 46.8285 32.3764 49.2292 33.2121C49.5787 33.3337 50.0584 33.2273 50.4382 33.1036C54.5623 31.7339 58.6604 30.3404 62.7736 28.9599C62.9743 28.9098 63.1781 28.8728 63.3836 28.8492L63.4964 29.0229ZM57.6771 32.027L57.6055 31.8859C55.1723 32.7411 52.7434 33.6093 50.3015 34.4385C49.9139 34.5839 49.4927 34.6148 49.0881 34.5275C48.1013 34.2219 47.0423 34.242 46.0678 34.5849C45.0933 34.9277 44.255 35.575 43.6769 36.4311C42.5482 38.1003 43.1689 40.0516 45.0487 40.744C46.8307 41.3952 49.4224 40.171 50.1973 38.3738C50.4203 37.8582 50.7625 37.4029 51.1958 37.0454C53.3338 35.3436 55.513 33.694 57.6771 32.027Z" fill="#2E2E2E"/>
<path d="M88.7142 83.0443C87.5399 82.8577 86.5306 82.7318 85.5364 82.5299C84.0605 82.2325 83.7132 81.5401 84.36 80.2183C84.7941 79.3131 85.3758 78.4644 85.7535 77.5354C86.2006 76.4501 86.8562 76.3546 87.8655 76.9255L85.8056 80.9888C86.765 81.6161 87.6159 81.4403 88.2128 80.4787C88.6469 79.7776 89.0007 79.0244 89.3871 78.2929C89.9818 77.1751 90.1012 77.1425 91.4686 77.7915L88.7142 83.0443Z" fill="#2E2E2E"/>
<path d="M69.0648 78.6271C66.6902 78.5967 65.7764 77.0209 66.9203 74.9371C67.9383 73.0769 70.0047 72.3042 71.7759 73.1203C72.7266 73.5545 73.0782 74.3033 72.8894 75.317C72.5117 77.2727 70.9185 78.651 69.0648 78.6271ZM69.1473 77.3921C70.0654 77.4072 71.0661 76.45 71.2354 75.3929C71.3895 74.4249 70.7904 73.8735 69.8419 74.1318C68.8933 74.3901 68.4136 75.1412 68.1488 76.0398C67.9187 76.819 68.3377 77.3812 69.1473 77.3921Z" fill="#2E2E2E"/>
<path d="M80.6905 81.2492C78.3028 81.2752 77.3565 79.7515 78.4656 77.6417C79.4294 75.801 81.5283 74.987 83.3017 75.7598C84.2502 76.1743 84.6627 76.8972 84.5107 77.9152C84.2394 79.7319 82.5116 81.2318 80.6905 81.2492ZM80.7708 80.0445C81.7714 80.0141 83.0391 78.6314 82.8285 77.6569C82.7547 77.3226 82.2728 76.9058 81.9212 76.8407C80.8967 76.6541 79.9677 77.5114 79.7029 78.7443C79.5097 79.5865 79.9199 80.0749 80.7708 80.0445Z" fill="#2E2E2E"/>
<path d="M95.1563 77.1012C95.0217 77.4702 94.8915 77.8327 94.7417 78.2451L95.8487 78.6792L95.2518 79.8448C93.7324 79.5735 93.6803 79.6278 92.5256 82.4148L93.6282 82.9488C93.333 84.1838 93.1225 84.2967 91.8353 83.8908C90.6719 83.524 90.3941 83.0074 90.8521 81.9872C91.0561 81.527 91.3339 81.1016 91.577 80.6566C91.7941 80.2464 92.0112 79.834 92.2695 79.3651L91.1559 78.8594C91.5546 78.4791 91.9734 78.1204 92.4105 77.785C92.7166 77.5679 93.1963 77.5549 93.4177 77.2966C93.9516 76.6714 94.4856 76.6476 95.1563 77.1012Z" fill="#2E2E2E"/>
<path d="M73.6149 79.6603L72.0195 79.3108L75.9027 71.8853L77.5198 72.1761L73.6149 79.6603Z" fill="#2E2E2E"/>
<path d="M74.6777 79.7667C75.8911 77.4486 77.0806 75.1933 78.2527 72.9272C78.7411 71.9809 79.3662 72.8317 80.1302 72.6364C79.8893 73.1617 79.7482 73.5046 79.5746 73.8389C78.6412 75.6231 77.7006 77.4059 76.7528 79.1872C76.1364 80.3723 76.1342 80.3723 74.6777 79.7667Z" fill="#2E2E2E"/>
<path d="M61.5156 76.8624C62.3253 75.2475 63.098 73.6304 63.9597 72.0633C64.0964 71.8158 64.6109 71.7268 64.9799 71.6856C65.147 71.6682 65.3445 71.9461 65.7027 72.2261L68.0057 72.0785C67.6779 72.7513 67.4999 73.1203 67.3284 73.4741C65.414 73.2745 65.0385 73.4741 64.1247 75.1498C63.937 75.4564 63.7738 75.7772 63.6363 76.1092C63.2651 77.1403 62.6704 77.5722 61.5156 76.8624Z" fill="#2E2E2E"/>
<path d="M102.735 61.4079L96.7051 60.1056C100.332 52.2785 103.914 44.536 107.532 36.8131C107.642 36.6628 107.786 36.5416 107.954 36.4603C108.121 36.3789 108.305 36.3398 108.491 36.3464C110.228 36.646 111.934 37.0388 113.701 37.4122C110.05 45.3956 106.425 53.3507 102.735 61.4079Z" fill="#FFF1F1"/>
<path d="M84.957 57.4401C87.6529 51.6555 90.3119 45.9556 92.9882 40.197L98.6968 41.3735C98.2627 42.3806 97.8546 43.327 97.4249 44.2582C95.3433 48.7643 93.24 53.2596 91.1844 57.7766C90.848 58.5189 90.4573 58.6773 89.6889 58.4798C88.1695 58.087 86.6132 57.7961 84.957 57.4401Z" fill="#E0F0FE"/>
<path d="M78.8868 56.1639L72.998 54.8811C74.359 52.0181 75.6809 49.2376 77.0049 46.4592C78.1966 43.9522 78.1966 43.9522 80.9011 44.573C81.8475 44.7901 82.7961 44.9941 83.8922 45.2372L78.8868 56.1639Z" fill="white"/>
<path d="M57.6774 32.027C55.5068 33.694 53.3362 35.3436 51.196 37.0453C50.7628 37.4029 50.4205 37.8582 50.1975 38.3737C49.4227 40.171 46.831 41.3974 45.0489 40.744C43.1692 40.0516 42.5484 38.1002 43.6771 36.4311C44.2553 35.575 45.0936 34.9277 46.0681 34.5848C47.0426 34.242 48.1016 34.2219 49.0884 34.5275C49.493 34.6148 49.9142 34.5839 50.3017 34.4385C52.7436 33.6093 55.1725 32.7411 57.6057 31.8859L57.6774 32.027Z" fill="white"/>
<path d="M69.1471 77.3921C68.3375 77.3813 67.9186 76.8169 68.1486 76.0399C68.4134 75.1412 68.8693 74.3967 69.8417 74.1319C70.8141 73.8671 71.3893 74.425 71.2352 75.393C71.0659 76.4501 70.0653 77.4073 69.1471 77.3921Z" fill="white"/>
<path d="M80.7702 80.0445C79.9194 80.0727 79.5178 79.5865 79.7023 78.753C79.9736 77.5201 80.8961 76.6627 81.9206 76.8494C82.2723 76.9145 82.7542 77.3312 82.828 77.6655C83.0385 78.6314 81.7709 80.0141 80.7702 80.0445Z" fill="white"/>
</svg>
