<svg width="129" height="121" viewBox="0 0 129 121" fill="none" xmlns="http://www.w3.org/2000/svg">
<path d="M111.206 24.3292L113.673 25.3488V68.5148L111.081 69.5948H46.4736V24.3292H111.206Z" fill="#404040" stroke="black" stroke-width="0.955787"/>
<path opacity="0.4" d="M60.6888 81.8177L93.7779 80.371L91.5079 83.2383L90.6716 103.429H36.0723L60.6888 81.8177Z" fill="#B2B2B2"/>
<rect x="43.6244" y="24.3296" width="67.1985" height="45.2652" fill="#C0C0C0" stroke="black" stroke-width="0.955787"/>
<path d="M111.175 74.3307L92.4785 98.3385L20.0723 96.9254L19.6172 94.0494L43.9795 72.527L110.731 70.316L111.175 74.3307Z" fill="#404040" stroke="black" stroke-width="0.955787"/>
<rect x="43.6244" y="28.171" width="67.1985" height="37.7063" fill="#2E2E2E" stroke="black" stroke-width="0.955787"/>
<path d="M110.32 70.3024L90.9473 95.1158L20.2305 93.5885L43.3926 70.3024H110.32Z" fill="#D1D1D1" stroke="black" stroke-width="0.955787"/>
<path d="M45.6416 72.6569H102.688C102.887 72.6571 102.999 72.8891 102.874 73.0455L94.2939 83.8112C94.2477 83.8691 94.1767 83.9022 94.1025 83.901L36.2451 82.943C36.0366 82.9395 35.932 82.6893 36.0762 82.5387L45.4688 72.7311C45.5138 72.684 45.5764 72.6569 45.6416 72.6569Z" fill="#2E2E2E" stroke="black" stroke-width="0.955787"/>
<path d="M52.0264 85.3197L69.1816 85.6117C70.1633 85.6284 70.707 86.7563 70.1084 87.5345L66.1592 92.6693C66.1133 92.7289 66.042 92.763 65.9668 92.7621L44.7617 92.4789C44.5549 92.4761 44.4485 92.2294 44.5889 92.0775L50.0508 86.1644C50.5589 85.6145 51.2777 85.307 52.0264 85.3197Z" fill="#404040" stroke="black" stroke-width="0.955787"/>
<rect opacity="0.3" x="48.4746" y="30.0474" width="50.5581" height="33.8293" rx="2.62841" fill="#DACECE"/>
<mask id="mask0_118_53093" style="mask-type:alpha" maskUnits="userSpaceOnUse" x="34" y="72" width="71" height="13">
<path d="M103.184 72.6569L94.2207 83.903L35.6973 82.9332L45.5391 72.6569H103.184Z" fill="#C4C4C4" stroke="black" stroke-width="0.955787"/>
</mask>
<g mask="url(#mask0_118_53093)">
<path d="M41.5371 84.3231L51.5744 71.6216M48.3525 84.3231L58.3898 71.6216M58.3898 80.7914L65.3911 71.6216M64.7715 80.7914L72.2065 71.6216M70.7195 80.7914L78.0926 71.6216M74.8708 84.3231L84.908 71.6216M81.8721 84.3231L91.9093 71.6216M88.6875 84.3231L98.7248 71.6216" stroke="black" stroke-width="0.955787"/>
<path d="M41.9697 74.5337H102.813M39.2435 77.8794H100.397M36.2695 80.8535H98.1041" stroke="black" stroke-width="0.955787"/>
</g>
<rect x="21.9759" y="13.5853" width="60.9293" height="46.3557" rx="1.91157" fill="white" stroke="#383838" stroke-width="0.955787"/>
<path d="M23.8857 13.585H81.1338C82.1895 13.585 83.0459 14.4414 83.0459 15.4971V22.4844H21.9736V15.4971C21.9736 14.4414 22.83 13.585 23.8857 13.585Z" fill="#E0F0FE" stroke="#383838" stroke-width="0.955787"/>
<circle cx="27.2922" cy="18.3247" r="1.15939" fill="#FF8484"/>
<circle cx="30.884" cy="18.3247" r="1.15939" fill="#85E08E"/>
<circle cx="34.6867" cy="18.3247" r="1.15939" fill="#FAFFDE"/>
<rect x="105.229" y="29.6757" width="3.84142" height="3.59359" rx="0.477893" fill="#FAFFDE"/>
<rect x="105.229" y="36.6151" width="3.84142" height="3.59359" rx="0.477893" fill="#D1D1D1"/>
<path d="M105.371 34.8597C105.409 34.8295 105.754 34.5048 105.783 34.6401C105.835 34.8785 106.005 34.6897 106.165 34.616C106.287 34.5596 106.426 34.7006 106.561 34.7058C106.666 34.7099 106.777 34.6722 106.881 34.6978C106.976 34.7211 107.041 34.7748 107.144 34.7796C107.431 34.7927 107.701 34.793 107.989 34.7443C108.342 34.6847 108.68 34.6577 109.036 34.6577" stroke="black" stroke-width="0.238947" stroke-linecap="round" stroke-linejoin="round"/>
<path d="M105.371 41.7991C105.409 41.7689 105.754 41.4442 105.783 41.5795C105.835 41.8179 106.005 41.629 106.165 41.5554C106.287 41.499 106.426 41.64 106.561 41.6452C106.666 41.6493 106.777 41.6116 106.881 41.6372C106.976 41.6605 107.041 41.7142 107.144 41.719C107.431 41.7321 107.701 41.7324 107.989 41.6837C108.342 41.6241 108.68 41.5971 109.036 41.5971" stroke="black" stroke-width="0.238947" stroke-linecap="round" stroke-linejoin="round"/>
<rect x="48.3984" y="49.9052" width="19.3547" height="4.77893" rx="2.38947" fill="#FFC7C7"/>
<rect opacity="0.25" x="27.6113" y="49.9052" width="19.3547" height="4.77893" rx="2.38947" fill="#FFC7C7"/>
<path d="M28.0879 28.639H76.5941" stroke="#383838" stroke-width="0.955787" stroke-linecap="round"/>
<path d="M28.0879 31.9843H76.5941" stroke="#383838" stroke-width="0.955787" stroke-linecap="round"/>
<path d="M28.0879 35.3295H52.4605" stroke="#383838" stroke-width="0.955787" stroke-linecap="round"/>
</svg>
