<svg width="161" height="121" viewBox="0 0 161 121" fill="none" xmlns="http://www.w3.org/2000/svg">
<path d="M127.944 69.5747V71.7941L134.001 73.1861C134.563 73.3156 135.133 73.4181 135.681 73.5901C135.958 73.6705 136.209 73.8251 136.405 74.0374C136.601 74.2497 136.736 74.5115 136.794 74.7947C136.852 75.0778 136.832 75.3715 136.736 75.6441C136.639 75.9166 136.47 76.1576 136.247 76.3411C135.642 76.8185 135.004 77.252 134.337 77.6384C132.29 78.9046 130.188 80.0878 128.189 81.4276C126.19 82.7673 124.129 83.065 121.794 82.4831C115.739 80.981 109.653 79.6122 103.579 78.1874C102.169 77.8568 101.698 77.2942 101.781 76.1285C101.837 75.3204 102.396 74.9782 103.02 74.6785C106.281 73.1087 109.533 71.5177 112.816 69.9904C113.552 69.6482 113.86 69.277 113.825 68.4244C113.748 66.5724 113.798 66.5936 111.998 66.2167C103.48 64.4187 94.9634 62.6176 86.4481 60.8132C86.2547 60.7745 86.0807 60.7107 85.841 60.6431C85.5278 61.6097 85.9686 62.1897 86.7709 62.5396C88.4084 63.2723 90.0575 63.9683 91.7027 64.6874C92.1739 64.8852 92.6346 65.1072 93.083 65.3525C94.0245 65.8822 94.7012 66.5975 94.7128 67.7749C94.7437 70.4466 94.8346 73.1184 94.8133 75.7882C94.8133 76.8206 94.2642 77.6828 93.4233 78.3227C93.1178 78.5567 92.8298 78.8099 92.4895 79.096C92.6024 79.3285 92.7317 79.5527 92.8762 79.7669C96.1627 83.8596 96.2342 88.3042 93.8853 92.7197C92.4818 95.3644 90.5118 97.7056 88.8163 100.198C88.1126 101.23 87.3683 102.249 86.798 103.355C86.2858 104.324 85.9758 105.387 85.8868 106.479C85.7978 107.572 85.9316 108.671 86.2802 109.71C86.6287 110.75 87.1847 111.707 87.9144 112.525C88.6441 113.343 89.5324 114.005 90.5253 114.469C93.7041 115.993 97.2558 116.565 100.752 116.116C103.76 115.751 106.73 115.055 109.701 114.43C111.055 114.144 111.985 114.502 112.371 115.691C112.463 115.965 112.499 116.256 112.477 116.545C112.454 116.833 112.374 117.115 112.241 117.372C112.107 117.629 111.923 117.857 111.7 118.041C111.476 118.226 111.218 118.363 110.941 118.446C109.572 118.883 108.176 119.252 106.776 119.577C103.266 120.417 99.6428 120.678 96.0486 120.35C92.0275 119.963 88.1919 118.981 85.2224 115.977C80.9073 111.619 80.4163 104.957 84.076 99.4378C85.4292 97.406 87.0338 95.55 88.4664 93.5742C89.7133 91.8517 90.7109 90.0035 91.0396 87.8499C91.316 86.0461 90.8578 84.4318 89.9376 82.8118C89.6399 83.0186 89.375 83.1791 89.1372 83.3705C88.0527 84.2443 86.9468 84.3661 85.6574 83.7185C85.2417 83.5097 84.5361 83.616 84.0682 83.819C82.0396 84.7019 80.0354 85.6363 78.0558 86.6222C75.8809 87.7107 73.7891 87.7919 71.6431 86.5198C70.4078 85.7871 69.0719 85.2264 67.8443 84.6194C67.3165 85.0621 66.7327 85.3927 66.3847 85.8818C66.0109 86.4185 65.7667 87.0346 65.6713 87.6817C65.0913 91.9716 63.9314 95.9947 61.0624 99.4069C57.1959 104.015 52.3163 106.874 46.4237 107.987C42.3736 108.76 38.3272 108.917 34.3292 107.627C28.7924 105.841 25.357 101.388 25.0496 95.5616C24.9665 94.015 24.8891 92.4684 24.8756 90.9218C24.8756 90.1214 24.5972 89.6207 23.8548 89.2631C20.4349 87.6159 21.1038 88.4588 20.8795 84.4299C20.8795 84.3101 20.8795 84.1902 20.8795 83.9331C18.5732 84.6522 16.3557 85.3405 14.1402 86.0345C12.9802 86.3999 11.8203 86.7305 10.6758 87.1635C10.169 87.3657 9.62522 87.4584 9.0801 87.4354C8.53499 87.4124 8.00091 87.2743 7.51297 87.0302C6.06109 86.3516 4.58601 85.7252 3.15733 85.0041C1.43866 84.1457 0.50683 82.7364 0.50683 80.7741C0.50683 62.2483 0.50683 43.7219 0.50683 25.1948C0.50683 23.0044 0.468165 20.814 0.419833 18.6217C0.357969 15.7218 1.83691 13.4947 4.64594 12.6808C9.28577 11.3275 13.9546 10.1037 18.6099 8.82583C24.7809 7.1323 30.9557 5.46002 37.1151 3.72976C38.6984 3.28511 40.1948 3.27351 41.7066 3.93661C42.6732 4.36 43.6804 4.68672 44.649 5.09657C46.648 5.96847 47.6784 7.53442 47.6784 9.70354C47.69 30.2928 47.69 50.882 47.6784 71.4713C47.6784 73.766 46.3464 75.7109 44.0362 76.5093C40.5292 77.7215 36.9914 78.8409 33.4438 79.9293C32.5275 80.2115 32.1099 80.5982 32.1949 81.6035C32.2897 82.7634 32.2317 83.9234 32.2278 85.0834C32.2278 86.2859 31.7696 87.1191 30.5323 87.5405C29.034 88.0528 29.0166 88.1205 29.065 89.7251C29.1326 91.9735 29.0437 94.2586 29.4246 96.4587C30.1205 100.491 33.0978 103.283 37.2427 103.892C43.5567 104.822 49.4764 103.73 54.642 99.7897C58.0948 97.1585 60.1905 93.6206 61.0218 89.3501C61.1011 88.9421 61.1745 88.5323 61.2151 88.1205C61.4703 85.7619 61.4761 85.7387 59.3611 84.834C58.5646 84.4976 58.0929 84.0278 58.0794 83.123C58.0658 82.3188 57.886 81.5107 57.9537 80.7142C58.0214 79.9177 57.6599 79.5542 57.0122 79.2662C56.1384 78.8795 55.2723 78.4387 54.4294 77.9941C53.5865 77.5494 53.0761 76.8573 53.0761 75.8366C53.0935 72.9057 53.0761 69.973 53.1012 67.0422C53.1128 65.7043 53.7353 64.7222 54.9765 64.1423C57.5091 62.9823 60.0223 61.7721 62.5742 60.6489C63.5022 60.2409 63.9043 59.7422 63.9565 58.6479C64.1498 54.36 66.2087 51.2223 70.2009 49.5017C70.9317 49.1865 71.127 48.7999 71.0786 48.073C71.009 47.0136 71.0032 45.9464 71.0206 44.885C71.0206 44.3495 70.8466 44.0731 70.3227 43.93C69.8933 43.801 69.4816 43.6192 69.097 43.3887C67.6104 42.5265 66.7307 41.3684 66.7868 39.5009C66.8835 36.2144 66.868 32.9278 66.7868 29.6413C66.752 28.2165 67.3668 27.246 68.5035 26.6544C72.43 24.6245 76.3854 24.6747 80.2752 26.782C80.8455 27.0913 81.2901 27.6326 81.8914 28.1527V27.0758C81.8914 20.6316 81.8914 14.1874 81.8914 7.74321C81.8914 5.06757 83.1635 3.21357 85.6303 2.25081C86.8212 1.78683 88.0449 1.39051 89.201 0.847261C90.7844 0.104889 92.3058 0.700333 93.8254 0.957457C99.573 1.92409 105.311 2.96032 111.051 3.97335C116.383 4.91484 121.713 5.86794 127.047 6.79978C132.063 7.67361 137.088 8.51845 142.107 9.38841C146.998 10.2352 151.893 11.0742 156.778 11.9616C159.228 12.4082 160.581 14.1326 160.581 16.6787C160.567 24.3151 160.531 31.9515 160.525 39.586C160.525 48.479 160.509 57.372 160.567 66.265C160.583 68.5076 159.804 70.1702 157.861 71.3127C156.685 71.973 155.552 72.7059 154.468 73.507C152.627 74.9202 150.702 74.5162 148.686 74.0696C141.805 72.5423 134.919 71.0827 127.944 69.5747ZM154.394 45.2466H154.329C154.329 42.6695 154.329 40.0925 154.329 37.5135C154.344 31.6519 154.362 25.7876 154.381 19.9208C154.381 17.4501 153.157 15.861 150.901 15.4047C149.426 15.107 147.941 14.8653 146.455 14.5966C139.965 13.4238 133.475 12.249 126.983 11.0723C120.464 9.87946 113.951 8.64991 107.432 7.45902C100.88 6.26233 94.3203 5.11397 87.7743 3.89988C85.0174 3.3953 83.2505 4.77952 83.2505 7.60208C83.226 21.452 83.2053 35.3031 83.1886 49.1556C83.1886 50.3156 83.1789 51.4755 83.2447 52.6355C83.2678 53.0221 83.4012 53.5248 83.67 53.7413C85.1586 54.9399 85.6535 56.5619 85.6786 58.3483C85.6883 59.1583 86.0401 59.3555 86.7207 59.5082C94.7998 61.223 102.873 62.9688 110.95 64.6894C119.585 66.5298 128.227 68.3619 136.873 70.1856C141.475 71.1619 146.07 72.1614 150.675 73.1242C152.846 73.5804 154.476 72.4534 154.445 70.0928C154.327 61.805 154.394 53.5248 154.394 45.2466ZM6.73387 51.8834H6.78993C6.78993 56.4885 6.78993 61.0942 6.78993 65.7005C6.80153 71.5293 6.77833 77.36 6.86726 83.1868C6.90593 85.7561 8.16061 86.57 10.5869 85.8025C20.7391 82.5907 30.888 79.3719 41.0338 76.1459C41.6138 75.9622 42.1938 75.7689 42.7602 75.5659C45.6601 74.5761 46.3657 73.5573 46.3677 70.466C46.3754 54.2021 46.3876 37.9375 46.4044 21.6724C46.4044 17.5835 46.3657 13.4927 46.3193 9.40388C46.2981 7.67748 45.0105 5.74615 42.4528 6.69731C42.273 6.76304 42.0913 6.82684 41.9076 6.87904L10.2872 15.5749C7.92476 16.2225 6.73387 17.8039 6.73387 20.2881V51.8834ZM41.9695 5.52189C40.5795 4.71379 39.3267 4.54559 38.0372 4.88585C34.3911 5.85248 30.7527 6.85391 27.1143 7.84954C19.8337 9.83564 12.5549 11.8308 5.27812 13.8349C2.90407 14.4864 1.69385 16.1046 1.66679 18.5521C1.66679 19.5496 1.70545 20.5491 1.70545 21.5486C1.69514 40.9457 1.67903 60.3428 1.65712 79.7398C1.65712 82.3227 2.44202 83.6489 5.52364 84.544V36.079C5.52364 30.6002 5.50818 25.1232 5.52364 19.6463C5.52364 17.2529 7.14952 15.0471 9.27417 14.4632C17.3629 12.24 25.4491 10.0328 33.5327 7.8418C36.2722 7.08783 39.0155 6.32806 41.9695 5.52189ZM74.7615 81.1124H74.7828C74.7828 79.9525 74.6919 78.7925 74.8079 77.6326C74.9355 76.3856 74.4599 75.6568 73.3695 75.1193C69.4354 73.1764 65.5321 71.1716 61.6037 69.219C59.6705 68.2524 57.7179 67.2857 55.7227 66.4448C54.6072 65.9731 54.2631 66.3017 54.2631 67.4907C54.2631 69.8725 54.3018 72.2542 54.2341 74.6321C54.1955 75.9313 54.7097 76.7239 55.8658 77.273C59.3631 78.9356 62.8371 80.6504 66.317 82.3459C68.6485 83.4807 70.9568 84.6445 73.3115 85.7484C74.6996 86.4018 74.746 86.3496 74.7576 84.8688C74.7692 83.6121 74.7615 82.3575 74.7615 81.1124ZM102.95 76.1324L103.043 76.5422C103.55 76.7123 104.047 76.9289 104.563 77.0487C110.666 78.4813 116.775 79.8887 122.875 81.3328C124.122 81.6286 125.287 81.5803 126.395 80.9172C129.256 79.2017 132.114 77.4779 134.967 75.7457C135.178 75.6181 135.298 75.3359 135.46 75.1271C135.253 74.9956 135.073 74.7984 134.84 74.7404C132.566 74.2204 130.289 73.7235 127.92 73.1938C127.92 73.6926 127.92 74.1063 127.92 74.52C127.909 76.057 126.894 76.9405 125.359 76.6195C121.821 75.8791 118.295 75.0729 114.765 74.2996C113.991 74.1295 113.639 73.6326 113.701 72.8342C113.746 72.2426 113.761 71.6511 113.802 70.7966L102.95 76.1324ZM91.3006 78.2338C92.9535 77.6326 93.6901 76.8071 93.6901 75.6084C93.6785 73.2885 93.6437 70.9718 93.5857 68.6584C93.5586 67.5255 93.2319 67.3283 92.215 67.8135C87.1009 70.2533 81.9945 72.7079 76.8958 75.1773C76.5614 75.3397 76.1844 75.8346 76.1786 76.1807C76.1225 79.3609 76.1457 82.543 76.1457 85.8103C76.4082 85.7943 76.6678 85.7469 76.919 85.6691C79.0707 84.6754 81.2379 83.7127 83.3394 82.6184C83.7686 82.3942 84.1127 81.6886 84.1823 81.1627C84.3137 80.1497 84.2557 79.1057 84.2074 78.0695C84.1765 77.4315 84.4007 77.0681 84.9807 76.7955C86.7458 75.9622 88.4915 75.0865 90.2431 74.2223C90.9081 73.8956 91.3006 74.0386 91.3064 74.8332C91.3083 75.9332 91.3006 77.0255 91.3006 78.2338ZM98.8963 119.323C102.777 119.291 106.629 118.657 110.316 117.444C110.96 117.232 111.459 116.864 111.207 116.106C110.956 115.349 110.359 115.453 109.759 115.613C108.489 115.954 107.221 116.307 105.943 116.613C100.992 117.8 96.068 117.862 91.2213 116.12C86.3746 114.378 83.8594 109.794 84.9904 104.921C85.5704 102.407 87.1363 100.426 88.6307 98.4093C89.9125 96.6694 91.2426 94.9739 92.3755 93.147C93.9627 90.5874 94.678 87.7783 94.0574 84.7489C93.4967 82.0133 91.9598 79.9525 89.5722 78.5315C89.2552 78.3382 88.5476 78.3382 88.3311 78.5586C87.8903 79.0013 87.9715 79.6219 88.4799 80.0878C88.6442 80.2405 88.824 80.3778 89.0019 80.517C91.9907 82.8466 92.967 85.9765 91.8341 89.6033C91.1923 91.6622 89.9917 93.4022 88.7158 95.1073C87.2156 97.1179 85.5704 99.0531 84.3427 101.218C80.627 107.761 83.525 115.422 90.5292 117.964C93.3169 118.975 96.2168 119.269 98.8963 119.323ZM25.7649 89.3578C25.9176 91.7028 25.9756 94.0228 26.2405 96.3175C26.8379 101.512 30.107 105.261 35.1721 106.637C39.7153 107.875 44.2585 107.53 48.6818 106.198C56.2872 103.908 61.6849 99.2213 63.7864 91.3007C64.173 89.8392 64.3354 88.3158 64.6041 86.8098C64.0996 86.7479 63.8154 86.7189 63.5312 86.6764C63.247 86.6338 62.928 86.57 62.5645 86.5082C62.493 86.9857 62.4157 87.3607 62.3848 87.7397C61.9362 93.0677 59.5873 97.3789 55.3631 100.629C50.2458 104.567 44.3957 105.99 38.043 105.253C34.8957 104.888 32.0828 103.66 30.107 101C28.3941 98.6993 27.9804 96.0179 27.9302 93.2514C27.8992 91.7202 27.9302 90.1891 27.9302 88.5497L25.7649 89.3578ZM64.1112 61.66L63.7922 61.4396L56.2428 64.931C56.527 65.1244 56.6507 65.2191 56.7899 65.2887C62.7714 68.2878 68.7574 71.2773 74.748 74.2571C75.0418 74.4021 75.5483 74.3306 75.8712 74.1798C79.8982 72.2813 83.9097 70.3461 87.9251 68.4264C89.3306 67.7555 90.738 67.0924 92.2131 66.3945L85.7076 63.5758C85.7869 64.5927 85.9009 65.4105 84.8995 65.8687C81.3114 67.5003 77.7465 69.19 74.1873 70.8661C73.8443 71.0401 73.4651 71.1307 73.0805 71.1307C72.6959 71.1307 72.3168 71.0401 71.9737 70.8661C69.3716 69.6308 66.7539 68.4264 64.1576 67.1678C62.6438 66.4332 62.377 65.0702 63.2934 63.6512C63.6762 63.0616 63.8482 62.3289 64.1112 61.66ZM74.2724 69.4529C77.4255 67.9663 80.7372 66.4196 84.047 64.8382C84.2403 64.7474 84.393 64.3858 84.3969 64.15C84.422 61.9963 84.48 59.8388 84.3969 57.689C84.2828 55.0095 82.1137 53.604 79.7029 54.7311C78.5327 55.3053 77.4864 56.1033 76.6232 57.0801C74.9722 58.9186 74.4309 61.2346 74.371 63.6628C74.3168 65.598 74.3052 67.5332 74.2782 69.4529H74.2724ZM80.7005 35.586C76.4802 37.4323 72.3468 37.4903 68.1343 35.6924C68.1343 37.1617 68.1729 38.5381 68.1207 39.9108C68.0821 40.9083 68.5074 41.6507 69.3464 42.0103C70.4464 42.4839 71.5987 42.9576 72.7722 43.118C75.1597 43.4448 77.5145 43.2128 79.612 41.844C80.3641 41.351 80.9267 40.6841 80.8957 39.7174C80.8513 38.3738 80.7701 37.0341 80.7005 35.586ZM74.3207 26.5268C73.8084 26.55 73.269 26.4823 72.7857 26.6138C71.5329 26.956 70.2357 27.246 69.0854 27.8201C67.8249 28.4484 67.8307 29.4827 68.9462 30.3063C69.3529 30.6198 69.8107 30.8605 70.2995 31.0177C71.3706 31.3251 72.4551 31.6519 73.5551 31.7679C75.5638 31.9766 77.5396 31.6886 79.2911 30.6272C79.8286 30.3005 80.4511 29.6355 80.4781 29.098C80.5033 28.6282 79.8382 27.9593 79.3182 27.6577C77.7793 26.7762 76.0684 26.5132 74.313 26.5268H74.3207ZM79.9426 52.9371C79.1693 52.7998 78.2549 52.3358 77.644 52.591C76.37 53.1227 75.0844 53.8631 74.1061 54.8239C71.6393 57.256 70.7558 60.3473 70.8679 63.7807C70.9375 65.8938 70.8795 65.8957 72.834 66.6806C72.9162 66.6912 72.9993 66.6912 73.0815 66.6806C72.7528 60.8847 73.8683 55.7867 79.9349 52.9371H79.9426ZM80.6637 31.503C76.4628 33.734 72.3217 33.7417 68.1362 31.503C68.1362 32.0172 68.1923 32.4445 68.1246 32.8563C67.9506 33.9196 68.4803 34.4029 69.4102 34.7528C72.401 35.9012 75.4033 36.079 78.4308 34.9848C80.7372 34.1342 80.8087 34.024 80.7063 31.6209C80.6955 31.5793 80.6786 31.5396 80.656 31.503H80.6637ZM81.8527 41.641C80.8861 42.2867 79.8672 42.9518 78.8755 43.6613C78.7551 43.7446 78.6525 43.8512 78.5739 43.9747C78.4952 44.0982 78.442 44.2361 78.4173 44.3805C78.3883 46.4104 78.4018 48.4403 78.4289 50.4702C78.4289 50.6906 78.5391 51.0289 78.6957 51.1063C79.7222 51.5973 80.7778 52.0323 81.8469 52.4963L81.8527 41.641ZM70.9974 50.6036C69.9504 50.9367 68.9838 51.4834 68.1589 52.2091C67.334 52.9349 66.6686 53.824 66.2049 54.8201C65.1164 57.0414 65.13 59.4038 65.1416 61.7798C65.1416 63.3419 65.4818 63.7131 67.1986 63.831C67.1986 62.4468 67.1734 61.0664 67.1986 59.69C67.2624 56.966 68.2483 54.6171 70.2686 52.7785C70.9472 52.1696 71.2391 51.5548 70.9897 50.6036H70.9974ZM72.4203 44.4075C72.4203 46.9672 72.4107 49.4727 72.4203 51.9762C72.4203 52.5562 72.5556 53.1111 73.3193 53.0743C74.0829 53.0376 74.1583 52.4944 74.1603 51.9144C74.1603 50.2073 74.1603 48.4983 74.1603 46.7912V44.6453L72.4203 44.4075ZM75.3724 44.4559V51.9762C77.2438 51.4291 77.2399 51.4291 77.1955 49.5867C77.1761 48.7844 77.1781 47.9821 77.1742 47.1798C77.1742 46.1958 77.1742 45.2118 77.1742 44.1717L75.3724 44.4559ZM70.4194 67.2142C70.4194 67.7768 70.2667 68.3548 70.4464 68.4921C71.0347 68.9034 71.6785 69.2289 72.3585 69.4587C72.457 69.4955 72.8302 69.0295 72.9288 68.7473C72.9431 68.6254 72.926 68.5018 72.8789 68.3884C72.8319 68.275 72.7565 68.1756 72.66 68.0996C72.0143 67.7942 71.3261 67.5661 70.4194 67.2142ZM66.5838 66.6342L67.0555 65.4743L64.5249 64.3878C63.825 65.5593 64.3837 66.1683 66.5838 66.642V66.6342Z" fill="#2E2E2E"/>
<path d="M129.672 89.2321C134.302 89.1451 137.581 91.3761 139.97 95.1866C143.197 100.337 143.21 107.308 139.908 111.813C137.853 114.616 135.048 116.075 131.564 116.307C123.284 116.858 119.45 110.805 118.072 105.481C117.299 102.51 117.262 99.4997 118.347 96.5727C120.175 91.6429 123.76 89.5182 128.705 89.2418C129.026 89.2167 129.349 89.2321 129.672 89.2321ZM137.644 105.354C137.992 100.725 136.136 95.985 132.78 93.2862C128.693 89.9996 122.445 89.9996 119.754 96.3156C118.594 99.0473 118.542 101.891 119.23 104.725C120.139 108.464 121.973 111.641 125.366 113.684C129.426 116.132 133.262 115.188 135.829 111.215C136.983 109.475 137.613 107.441 137.644 105.354ZM135.145 114.131C139.833 112.25 142.17 106.011 140.616 100.056C138.998 93.8488 134.213 90.5371 131.077 90.7227C138.791 93.3983 142.089 107.101 135.145 114.131Z" fill="#2E2E2E"/>
<path d="M154.395 45.2466C154.395 53.5248 154.327 61.805 154.437 70.0813C154.468 72.4418 152.838 73.5611 150.667 73.1126C146.062 72.146 141.467 71.1504 136.866 70.1741C128.231 68.3388 119.589 66.5067 110.943 64.6778C102.865 62.9572 94.7922 61.2115 86.7131 59.4967C86.0325 59.3517 85.6807 59.1545 85.671 58.3367C85.6459 56.5504 85.151 54.9284 83.6624 53.7297C83.3936 53.5132 83.2602 53.0067 83.237 52.6239C83.1713 51.464 83.1791 50.304 83.181 49.144C83.199 35.2929 83.2196 21.4417 83.2428 7.59051C83.2428 4.76795 85.0176 3.38567 87.7725 3.89605C94.3185 5.11014 100.878 6.25849 107.43 7.45518C113.949 8.64607 120.462 9.87563 126.981 11.0684C133.469 12.2684 139.96 13.4483 146.453 14.6083C147.936 14.877 149.42 15.1186 150.899 15.4164C153.163 15.8707 154.391 17.4617 154.379 19.9325C154.369 25.7941 154.351 31.6583 154.327 37.5251C154.327 40.1022 154.327 42.6792 154.327 45.2582L154.395 45.2466ZM151.688 41.1867C151.688 34.4229 151.688 27.6565 151.688 20.8875C151.688 19.4414 151.17 18.7609 149.84 18.5134C146.184 17.8542 142.526 17.2046 138.871 16.5512C131.911 15.3062 124.93 14.0882 117.966 12.8181C108.014 11.0034 98.0632 9.1687 88.1147 7.31405C86.9547 7.1014 86.2471 7.60211 86.1427 8.80653C86.0596 9.77316 86.0809 10.7398 86.0809 11.7064C86.0809 23.7545 86.0809 35.8052 86.0809 47.8584C86.0809 49.9386 86.3438 50.1783 88.3525 50.5843C92.6237 51.4311 96.8917 52.2914 101.156 53.1652C109.462 54.8652 117.765 56.5768 126.067 58.3C133.771 59.911 141.474 61.5382 149.175 63.1815C150.872 63.543 151.688 62.9282 151.688 61.1999V41.1867Z" fill="white"/>
<path d="M6.73438 51.8835V20.2882C6.73438 17.8039 7.92526 16.2283 10.2877 15.573L41.9159 6.87328C42.1092 6.82109 42.2813 6.75729 42.4611 6.69156C45.013 5.74426 46.3005 7.67559 46.3276 9.39812C46.374 13.487 46.4146 17.5778 46.4126 21.6666C46.4126 37.9318 46.4004 54.1963 46.3759 70.4602C46.3759 73.5534 45.6741 74.5703 42.7684 75.5601C42.1885 75.7535 41.6201 75.9468 41.042 76.1401C30.895 79.3622 20.746 82.5811 10.5951 85.7968C8.16886 86.5701 6.9219 85.7504 6.8755 83.1811C6.78657 77.3542 6.80977 71.5235 6.79817 65.6947C6.79044 61.0897 6.79044 56.484 6.79817 51.8777L6.73438 51.8835ZM8.8745 49.291H8.97696C8.97696 55.895 8.97696 62.499 8.97696 69.1031C8.97696 70.7444 8.97696 72.3896 9.01756 74.0309C9.03882 75.0517 9.52794 75.6471 10.3882 75.6858C10.8999 75.7244 11.4145 75.6793 11.9117 75.5524C22.0626 72.5571 32.2083 69.5496 42.3489 66.5299C44.1913 65.9808 44.7326 65.2249 44.7307 63.3265C44.7217 49.2781 44.7094 35.2329 44.694 21.191C44.694 19.2578 44.6727 17.3245 44.5702 15.3912C44.489 13.833 43.6036 13.2066 42.1189 13.6107C31.937 16.3701 21.7552 19.1411 11.5733 21.9237C9.17415 22.581 8.86676 23.047 8.86676 25.508L8.8745 49.291ZM20.8066 16.992C21.0908 16.903 21.2416 16.8508 21.3866 16.8102C23.5776 16.2148 25.7686 15.6206 27.9597 15.0278C29.4405 14.6295 30.933 14.2661 32.4062 13.8079C32.7039 13.7151 32.8895 13.2685 33.1273 12.9843C32.7987 12.7977 32.4569 12.6355 32.1046 12.4991C31.9518 12.4507 31.7411 12.588 31.5575 12.6363C29.0842 13.3001 26.6128 13.9626 24.1434 14.6237C23.0008 14.9331 21.8486 15.2172 20.7351 15.6058C20.4799 15.6948 20.2633 16.1549 20.2266 16.4739C20.2034 16.6285 20.6229 16.8412 20.8066 16.992ZM30.7668 75.2914C30.73 74.2359 30.1752 73.8009 29.3516 73.9807C28.762 74.1346 28.1811 74.3205 27.6117 74.5374C26.4633 74.9241 25.3053 75.2876 24.1685 75.6974C23.4726 75.9526 23.0762 76.55 23.3952 77.2112C23.575 77.5746 24.3019 77.9845 24.6538 77.8955C26.4119 77.4248 28.1445 76.8634 29.8446 76.2136C30.2796 76.0609 30.5638 75.506 30.7668 75.2914Z" fill="white"/>
<path d="M41.9707 5.52189C39.0167 6.32806 36.2734 7.08783 33.5339 7.8418C25.4529 10.0483 17.3712 12.2554 9.28889 14.4632C7.1623 15.0432 5.54803 17.2529 5.53836 19.6463C5.51323 25.1232 5.53836 30.6002 5.53836 36.079V84.5401C2.44127 83.645 1.66797 82.3188 1.66797 79.736C1.70406 60.3402 1.72017 40.9431 1.7163 21.5448C1.7163 20.5453 1.66797 19.5458 1.67764 18.5482C1.6989 16.1007 2.90912 14.4884 5.28317 13.8272C12.5574 11.8153 19.8393 9.81759 27.129 7.83407C30.7674 6.83844 34.4058 5.83701 38.052 4.87038C39.3279 4.53786 40.5807 4.70605 41.9707 5.52189Z" fill="white"/>
<path d="M74.7619 81.1125C74.7619 82.3672 74.7619 83.6257 74.7619 84.8765C74.7503 86.3574 74.7039 86.4096 73.3158 85.7562C70.9707 84.6523 68.6528 83.4885 66.3213 82.3536C62.8414 80.6582 59.3615 78.9434 55.87 77.2807C54.7101 76.7317 54.1997 75.9391 54.2384 74.6399C54.306 72.262 54.2654 69.8802 54.2674 67.4984C54.2674 66.3095 54.6115 65.9808 55.727 66.4525C57.7221 67.2974 59.667 68.2621 61.608 69.2268C65.5364 71.1794 69.4396 73.1842 73.3738 75.1271C74.4642 75.6645 74.9397 76.3934 74.8121 77.6403C74.6961 78.7868 74.787 79.9603 74.787 81.1202L74.7619 81.1125ZM61.0821 73.5728C61.0821 72.1421 60.0614 70.8874 58.8879 70.8662C57.8478 70.8449 57.1479 71.7362 57.1479 73.0701C57.1479 74.4678 58.2306 75.6355 59.4968 75.6104C60.4383 75.5872 61.086 74.7424 61.0821 73.5728ZM66.2671 76.2542C66.2671 74.7965 65.3005 73.6056 64.0806 73.5747C63.114 73.5476 62.389 74.4041 62.3716 75.593C62.3503 77.0372 63.3982 78.2222 64.7031 78.23C65.7045 78.2319 66.2613 77.5301 66.2671 76.2503V76.2542ZM67.7847 78.17C67.7847 79.4905 68.7746 80.693 69.892 80.7278C70.7233 80.7548 71.4637 79.8327 71.4579 78.7771C71.4579 77.5069 70.3966 76.3218 69.2482 76.2929C68.3647 76.2639 67.7847 77.012 67.7847 78.1662V78.17Z" fill="white"/>
<path d="M102.951 76.1323L113.797 70.8062C113.756 71.6607 113.741 72.2523 113.696 72.8439C113.634 73.6423 113.986 74.1392 114.76 74.3093C118.29 75.0942 121.816 75.8946 125.354 76.6292C126.889 76.9501 127.904 76.0666 127.915 74.5297C127.915 74.116 127.915 73.7022 127.915 73.2035C130.284 73.7254 132.555 74.2223 134.835 74.7501C135.059 74.8003 135.248 74.9975 135.455 75.1367C135.293 75.3455 135.173 75.6278 134.962 75.7554C132.116 77.4876 129.261 79.2088 126.396 80.9191C125.288 81.5822 124.122 81.6305 122.875 81.3348C116.776 79.8906 110.667 78.4832 104.564 77.0506C104.047 76.9289 103.55 76.7143 103.044 76.5441L102.951 76.1323Z" fill="white"/>
<path d="M91.3021 78.2338C91.3021 77.0255 91.3021 75.9332 91.3021 74.8409C91.3021 74.0464 90.9039 73.9033 90.2388 74.23C88.4873 75.0942 86.7416 75.97 84.9765 76.8032C84.3965 77.0758 84.1761 77.4392 84.2032 78.0772C84.2515 79.1057 84.3095 80.1497 84.178 81.1704C84.1084 81.6963 83.7643 82.4019 83.3351 82.6262C81.2337 83.7204 79.0665 84.6832 76.9148 85.6769C76.6636 85.7547 76.404 85.8021 76.1415 85.818C76.1415 82.5508 76.1183 79.3686 76.1743 76.1884C76.1743 75.8424 76.561 75.3475 76.8916 75.1851C81.9838 72.7053 87.0902 70.2507 92.2107 67.8213C93.2276 67.336 93.5544 67.5332 93.5814 68.6661C93.6394 70.986 93.6742 73.3027 93.6858 75.6162C93.6916 76.8071 92.9551 77.6326 91.3021 78.2338Z" fill="#E0F0FE"/>
<path d="M98.8979 119.323C96.2184 119.269 93.3185 118.975 90.5327 117.97C83.5265 115.428 80.6286 107.766 84.3462 101.224C85.5758 99.059 87.219 97.1238 88.7193 95.117C89.9952 93.4119 91.1958 91.672 91.8376 89.613C92.9705 85.9824 91.9942 82.8466 89.0054 80.5267C88.8275 80.3875 88.6477 80.2502 88.4834 80.0975C87.9749 79.6316 87.8938 79.011 88.3345 78.5683C88.5511 78.3498 89.2586 78.3537 89.5757 78.5412C91.9633 79.9525 93.5002 82.0211 94.0628 84.7586C94.6834 87.788 93.9681 90.5971 92.3809 93.1567C91.248 94.9836 89.9179 96.6888 88.6361 98.419C87.1398 100.426 85.5719 102.405 84.9919 104.921C83.859 109.794 86.4032 114.394 91.2286 116.12C96.0541 117.846 100.999 117.8 105.95 116.613C107.228 116.308 108.497 115.954 109.767 115.613C110.366 115.453 110.973 115.372 111.215 116.106C111.456 116.841 110.967 117.232 110.323 117.444C106.635 118.657 102.781 119.291 98.8979 119.323Z" fill="#707070"/>
<path d="M25.7656 89.3501L27.9328 88.5497C27.9328 90.1891 27.9077 91.7203 27.9328 93.2514C27.9889 96.0179 28.3968 98.6993 30.1097 101C32.0855 103.652 34.8984 104.88 38.0457 105.253C44.3984 105.99 50.2485 104.567 55.3658 100.629C59.59 97.3789 61.9389 93.0677 62.3874 87.7397C62.4183 87.353 62.4957 86.9857 62.5672 86.5082C62.9229 86.57 63.2226 86.63 63.5338 86.6764C63.8451 86.7228 64.1022 86.7479 64.6068 86.8098C64.3381 88.3158 64.1757 89.8392 63.789 91.3007C61.6876 99.2271 56.2899 103.908 48.6844 106.198C44.2631 107.53 39.718 107.875 35.1748 106.637C30.1193 105.261 26.8405 101.512 26.2431 96.3175C25.9764 94.015 25.9184 91.6951 25.7656 89.3501Z" fill="#707070"/>
<path d="M64.1105 61.6599C63.8418 62.3289 63.6697 63.0616 63.2869 63.6551C62.3706 65.0741 62.6374 66.437 64.1511 67.1717C66.7455 68.4302 69.3709 69.6347 71.9673 70.87C72.3103 71.0439 72.6895 71.1346 73.0741 71.1346C73.4587 71.1346 73.8378 71.0439 74.1809 70.87C77.7458 69.1939 81.3049 67.5042 84.8931 65.8725C85.9003 65.4143 85.7804 64.5966 85.7012 63.5797L92.2066 66.3984C90.7315 67.0963 89.3241 67.7517 87.9186 68.4302C83.9032 70.35 79.8917 72.2852 75.8647 74.1836C75.5419 74.3344 75.0354 74.4059 74.7415 74.2609C68.7432 71.2966 62.7572 68.3071 56.7834 65.2925C56.6442 65.2229 56.5205 65.1224 56.2363 64.9349L63.7915 61.4434L64.1105 61.6599Z" fill="white"/>
<path d="M74.2773 69.4529C74.3044 67.5332 74.316 65.598 74.3624 63.6628C74.4223 61.2346 74.9637 58.9186 76.6147 57.0801C77.4778 56.1033 78.5241 55.3053 79.6943 54.7311C82.1051 53.6041 84.2742 55.0095 84.3883 57.689C84.4792 59.8388 84.4212 61.9963 84.3883 64.15C84.3883 64.3859 84.2259 64.7474 84.0384 64.8382C80.7364 66.4197 77.4247 67.9663 74.2773 69.4529ZM82.1805 60.0051C81.8306 59.4096 81.6005 58.6518 81.096 58.2652C80.4406 57.7702 79.6189 58.0718 78.9694 58.5687C77.7495 59.4947 77.0361 60.7494 77.1057 62.267C77.1308 62.874 77.5291 63.7266 78.0124 63.9799C78.4957 64.2331 79.416 64.0785 79.9457 63.7633C81.2661 62.9746 81.8557 61.6658 82.1805 60.0051Z" fill="white"/>
<path d="M80.7013 35.586C80.7709 37.0282 80.8521 38.3738 80.8946 39.7212C80.9256 40.6879 80.363 41.351 79.6109 41.8478C77.5134 43.2166 75.1644 43.4486 72.7711 43.1219C71.5976 42.9614 70.4511 42.4877 69.3453 42.0141C68.5024 41.6506 68.081 40.9121 68.1196 39.9146C68.1718 38.542 68.1332 37.1655 68.1332 35.6962C72.3477 37.4903 76.4849 37.4323 80.7013 35.586ZM79.1914 39.1007C79.1914 38.1669 78.7777 37.5869 78.0895 37.5831C77.3297 37.5831 76.8773 38.1901 76.8715 39.2283C76.8715 40.222 77.2466 40.7749 77.9348 40.7594C78.623 40.7439 79.1914 40.0267 79.1914 39.1007Z" fill="white"/>
<path d="M74.3137 26.5268C76.0691 26.5133 77.7801 26.7762 79.3073 27.6578C79.8293 27.9593 80.4944 28.6244 80.4673 29.098C80.4383 29.6355 79.8177 30.3005 79.2803 30.6272C77.5287 31.6886 75.5529 31.9805 73.5443 31.7679C72.4443 31.6519 71.3597 31.3252 70.2887 31.0178C69.7999 30.8605 69.342 30.6198 68.9354 30.3063C67.8199 29.4828 67.8141 28.4485 69.0746 27.8202C70.2249 27.2402 71.5221 26.956 72.7748 26.6138C73.262 26.4823 73.8014 26.55 74.3137 26.5268Z" fill="#383838"/>
<path d="M79.9356 52.937C73.8691 55.7828 72.7536 60.8847 73.0745 66.6883C72.9924 66.6989 72.9092 66.6989 72.827 66.6883C70.8725 65.8976 70.9305 65.8957 70.8609 63.7884C70.7488 60.355 71.6342 57.2637 74.0991 54.8316C75.0774 53.865 76.363 53.1304 77.637 52.5987C78.2479 52.3358 79.1604 52.7998 79.9356 52.937Z" fill="white"/>
<path d="M80.6579 31.503C80.6796 31.5366 80.6965 31.573 80.7081 31.6113C80.8106 34.024 80.7391 34.1342 78.4192 34.9771C75.3859 36.0713 72.3893 35.8935 69.3986 34.7451C68.4687 34.3875 67.9389 33.9119 68.1129 32.8486C68.1806 32.4426 68.1245 32.0153 68.1245 31.4953C72.3159 33.7476 76.4569 33.734 80.6579 31.503Z" fill="white"/>
<path d="M81.8462 41.6411V52.5002C80.7772 52.0362 79.7197 51.6012 78.695 51.1102C78.5384 51.0328 78.4321 50.6945 78.4282 50.4741C78.4012 48.4442 78.3876 46.4143 78.4166 44.3844C78.4406 44.2405 78.4929 44.1028 78.5706 43.9793C78.6483 43.8559 78.7497 43.7491 78.869 43.6652C79.8608 42.9518 80.8854 42.2868 81.8462 41.6411Z" fill="white"/>
<path d="M70.9912 50.6036C71.2406 51.5548 70.9487 52.1696 70.2759 52.7844C68.2557 54.6268 67.2697 56.9718 67.2059 59.6958C67.175 61.0723 67.2059 62.4526 67.2059 63.8368C65.4892 63.7208 65.1567 63.3477 65.1489 61.7856C65.1373 59.4058 65.1238 57.0433 66.2122 54.8259C66.6738 53.8301 67.3368 52.9407 68.1593 52.214C68.9819 51.4873 69.9461 50.939 70.9912 50.6036Z" fill="white"/>
<path d="M72.4126 44.4075L74.1622 44.6453V46.7835C74.1622 48.4906 74.1622 50.1996 74.1622 51.9067C74.1622 52.4866 74.0674 53.0395 73.3212 53.0666C72.575 53.0937 72.4261 52.5408 72.4222 51.9685C72.4029 49.4727 72.4126 46.9672 72.4126 44.4075Z" fill="white"/>
<path d="M75.3652 44.4558L77.167 44.1716C77.167 45.2117 77.167 46.1958 77.167 47.1798C77.167 47.9821 77.167 48.7844 77.1883 49.5867C77.2328 51.4291 77.2366 51.4291 75.3652 51.9762V44.4558Z" fill="white"/>
<path d="M70.4199 67.2142C71.3266 67.5661 72.0148 67.7942 72.6605 68.1093C72.757 68.1853 72.8324 68.2847 72.8794 68.3981C72.9265 68.5115 72.9436 68.6351 72.9293 68.757C72.8307 69.0392 72.4576 69.5051 72.359 69.4684C71.679 69.2386 71.0352 68.9131 70.447 68.5018C70.2672 68.3529 70.4199 67.7729 70.4199 67.2142Z" fill="white"/>
<path d="M66.5833 66.642C64.3832 66.1683 63.8245 65.5593 64.5244 64.4013L67.055 65.4878L66.5833 66.642Z" fill="white"/>
<path d="M137.643 105.354C137.613 107.44 136.986 109.474 135.835 111.215C133.268 115.188 129.436 116.132 125.373 113.684C121.98 111.641 120.153 108.464 119.236 104.725C118.548 101.891 118.597 99.0473 119.76 96.3156C122.444 90.0055 128.692 90.0055 132.779 93.292C136.135 95.985 137.991 100.725 137.643 105.354ZM127.522 97.0967C126.308 97.1547 125.338 97.4408 124.957 98.5988C124.57 99.7974 124.87 100.896 125.674 101.818C126.135 102.309 126.648 102.749 127.203 103.13C127.954 103.679 128.773 104.136 129.504 104.708C129.925 105.042 130.196 105.528 130.26 106.061C130.323 106.594 130.173 107.131 129.842 107.554C129.142 108.385 127.886 108.441 127.037 107.554C126.54 107.039 126.235 106.342 125.81 105.75C125.616 105.53 125.401 105.331 125.168 105.154C125.042 105.443 124.781 105.748 124.816 106.017C124.959 107.221 125.748 108.056 126.691 108.687C127.186 109.017 127.455 109.307 127.345 109.891C127.174 110.79 127.604 111.101 128.495 111.03C128.539 110.471 128.58 109.937 128.622 109.394C130.076 109.278 131.209 108.673 131.507 107.237C131.789 105.864 131.578 104.573 130.043 103.563C128.889 102.808 127.781 101.984 126.726 101.095C125.881 100.383 125.746 99.5055 126.204 98.8869C126.689 98.2296 127.658 98.0266 128.541 98.622C129.171 99.0473 129.587 99.782 130.148 100.321C130.378 100.546 130.728 100.642 131.033 100.797C131.083 100.499 131.285 100.093 131.159 99.9231C130.567 99.1169 129.875 98.3765 129.247 97.6032C129.023 97.3209 128.667 96.9014 128.736 96.6713C129.123 95.5114 128.45 95.349 127.52 95.2717L127.522 97.0967Z" fill="#FFF1F1"/>
<path d="M135.144 114.131C142.088 107.101 138.79 93.3983 131.084 90.7227C134.22 90.5294 139.01 93.8488 140.623 100.057C142.169 106.015 139.832 112.25 135.144 114.131Z" fill="white"/>
<path d="M151.689 41.1944V61.1998C151.689 62.9282 150.869 63.5429 149.176 63.1814C141.475 61.5446 133.772 59.9174 126.068 58.2999C117.766 56.5677 109.463 54.851 101.158 53.1497C96.8927 52.2733 92.6248 51.413 88.3535 50.5688C86.3449 50.1706 86.0839 49.9231 86.082 47.8429C86.0716 35.7948 86.0716 23.7442 86.082 11.6909C86.082 10.7243 86.0607 9.75766 86.1438 8.79103C86.2482 7.58661 86.9577 7.0859 88.1157 7.29855C98.0656 9.13515 108.016 10.9698 117.967 12.8026C124.927 14.0727 131.904 15.2907 138.872 16.5357C142.527 17.1891 146.185 17.8387 149.839 18.5095C151.169 18.7531 151.687 19.4375 151.687 20.8836C151.688 27.6552 151.689 34.4254 151.689 41.1944ZM150.388 40.8387H150.367C150.367 34.2347 150.367 27.63 150.367 21.0247C150.367 20.3133 150.204 19.9382 149.389 19.799C145.348 19.1108 141.319 18.3433 137.284 17.6067C132.155 16.671 127.021 15.736 121.884 14.8015C116.747 13.8671 111.61 12.9398 106.474 12.0196C100.579 10.9524 94.6811 9.87173 88.7943 8.81423C87.3908 8.56291 87.3444 8.62091 87.3444 10.0651C87.3328 20.0858 87.3167 30.1059 87.296 40.1253C87.296 41.1886 87.0582 42.2519 86.9461 43.3152C86.9488 43.4681 86.9763 43.6196 87.0273 43.7637C87.1201 44.1504 87.2844 44.537 87.2999 44.9237C87.3628 45.8893 87.3628 46.858 87.2999 47.8236C87.2168 48.7419 87.6266 49.057 88.4483 49.2252C97.1982 51.0077 105.946 52.805 114.692 54.6171C125.945 56.937 137.196 59.273 148.445 61.6252C150.653 62.0911 150.378 61.7663 150.378 60.0785C150.409 53.6601 150.388 47.2513 150.388 40.8387Z" fill="#2E2E2E"/>
<path d="M8.87305 49.2909V25.5118C8.87305 23.0508 9.18044 22.5849 11.5796 21.9275C21.7537 19.1385 31.9356 16.3675 42.1252 13.6145C43.6118 13.2105 44.4953 13.8368 44.5765 15.3951C44.679 17.3283 44.6964 19.2616 44.7003 21.1948C44.7196 35.2432 44.7318 49.2916 44.737 63.34C44.737 65.2384 44.1976 65.9943 42.3552 66.5434C32.2082 69.5541 22.0605 72.5571 11.9121 75.5524C11.4149 75.6793 10.9004 75.7243 10.3887 75.6858C9.52842 75.6471 9.03544 75.0517 9.01804 74.0309C8.98518 72.3876 8.97938 70.7443 8.97744 69.103C8.97744 62.499 8.97744 55.895 8.97744 49.2909H8.87305ZM10.1722 49.144H10.2244C10.2244 55.7467 10.2244 62.3488 10.2244 68.9503C10.2244 70.464 10.2515 71.9778 10.2437 73.4915C10.2437 74.2435 10.5337 74.5799 11.307 74.3711C11.5235 74.3131 11.7478 74.288 11.9624 74.2242C21.9226 71.2599 31.8808 68.2955 41.8371 65.3312C43.2948 64.8962 43.4243 64.6681 43.4243 63.1312C43.4127 47.6664 43.4018 32.2054 43.3914 16.7483C43.3914 16.4274 43.374 16.1046 43.345 15.7817C43.2735 15.0084 43.0357 14.6855 42.1097 14.9407C36.0122 16.6362 29.8915 18.2466 23.7843 19.9034C19.8649 20.9628 15.9533 22.0422 12.0494 23.1416C10.4448 23.594 10.1722 24.0174 10.1722 25.6684V49.144Z" fill="#2E2E2E"/>
<path d="M20.8075 16.992C20.6238 16.8412 20.2043 16.6285 20.2275 16.4739C20.2642 16.1549 20.4807 15.6948 20.7359 15.6058C21.8495 15.2192 23.0017 14.9331 24.1443 14.6237C26.6137 13.9574 29.085 13.2949 31.5583 12.6363C31.7517 12.588 31.945 12.443 32.1054 12.4991C32.4578 12.6355 32.7996 12.7977 33.1281 12.9843C32.8904 13.2685 32.7048 13.7151 32.407 13.8079C30.9436 14.2661 29.4511 14.6295 27.9605 15.0278C25.7695 15.6194 23.5785 16.2135 21.3874 16.8103C21.2424 16.8509 21.0917 16.9031 20.8075 16.992Z" fill="#2E2E2E"/>
<path d="M30.7671 75.2914C30.5641 75.508 30.2876 76.0647 29.8623 76.2213C28.1629 76.8711 26.4309 77.4325 24.6734 77.9033C24.3216 77.9941 23.5947 77.5824 23.4149 77.2189C23.0882 76.5577 23.4845 75.9603 24.1882 75.7052C25.325 75.2876 26.483 74.9319 27.6313 74.5452C28.2008 74.3282 28.7816 74.1424 29.3713 73.9884C30.1755 73.8009 30.7304 74.2359 30.7671 75.2914Z" fill="#2E2E2E"/>
<path d="M61.0807 73.5727C61.0807 74.7462 60.4272 75.5911 59.4954 75.6065C58.2291 75.6317 57.1523 74.464 57.1465 73.0662C57.1465 71.7323 57.8463 70.841 58.8864 70.8623C60.0599 70.8836 61.0749 72.1383 61.0807 73.5727Z" fill="#2E2E2E"/>
<path d="M66.2669 76.2503C66.2669 77.5301 65.7044 78.2319 64.7029 78.2261C63.398 78.2261 62.3501 77.0333 62.3714 75.5891C62.3888 74.4002 63.1138 73.5437 64.0804 73.5708C65.3003 73.6017 66.2727 74.7926 66.2669 76.2503Z" fill="#2E2E2E"/>
<path d="M67.7852 78.1662C67.7852 77.0062 68.3651 76.2638 69.2486 76.2889C70.397 76.3179 71.4506 77.503 71.4584 78.7732C71.4584 79.8288 70.7237 80.7509 69.8924 80.7239C68.775 80.6891 67.7852 79.4866 67.7852 78.1662Z" fill="#2E2E2E"/>
<path d="M82.1828 60.0051C81.858 61.6657 81.2683 62.9745 79.9499 63.7575C79.4221 64.0726 78.5038 64.2312 78.0166 63.974C77.5294 63.7169 77.135 62.8682 77.1099 62.2612C77.0422 60.7436 77.7537 59.4889 78.9736 58.5628C79.6193 58.0718 80.4409 57.7644 81.1001 58.2593C81.6086 58.6421 81.8329 59.4096 82.1828 60.0051Z" fill="#2E2E2E"/>
<path d="M79.1911 39.1007C79.1911 40.0267 78.6362 40.7478 77.9345 40.7594C77.2327 40.771 76.8654 40.222 76.8712 39.2283C76.8712 38.1901 77.3293 37.5792 78.0891 37.5831C78.7774 37.587 79.1911 38.1669 79.1911 39.1007Z" fill="#2E2E2E"/>
<path d="M127.523 97.0967V95.2852C128.452 95.3625 129.119 95.5307 128.739 96.6849C128.661 96.915 129.025 97.3345 129.249 97.6167C129.877 98.39 130.569 99.1305 131.161 99.9366C131.287 100.107 131.086 100.517 131.035 100.81C130.736 100.656 130.38 100.559 130.15 100.335C129.589 99.7897 129.174 99.0609 128.543 98.6356C127.66 98.0401 126.691 98.2489 126.206 98.9004C125.748 99.5191 125.883 100.397 126.728 101.108C127.783 101.997 128.891 102.822 130.045 103.577C131.58 104.58 131.785 105.872 131.509 107.25C131.211 108.687 130.078 109.292 128.624 109.408C128.582 109.951 128.541 110.485 128.497 111.043C127.606 111.115 127.176 110.804 127.347 109.905C127.457 109.325 127.188 109.031 126.693 108.7C125.75 108.07 124.953 107.235 124.818 106.03C124.785 105.762 125.044 105.45 125.17 105.168C125.403 105.344 125.619 105.544 125.812 105.764C126.237 106.355 126.542 107.053 127.039 107.567C127.888 108.447 129.145 108.391 129.844 107.567C130.175 107.144 130.324 106.607 130.261 106.074C130.197 105.541 129.925 105.055 129.504 104.721C128.773 104.141 127.958 103.693 127.204 103.144C126.648 102.763 126.135 102.323 125.674 101.831C124.87 100.909 124.561 99.811 124.957 98.6124C125.34 97.4408 126.31 97.1585 127.523 97.0967Z" fill="#2E2E2E"/>
<path d="M150.389 40.8387C150.389 47.2514 150.41 53.6621 150.376 60.0728C150.366 61.7644 150.648 62.0892 148.442 61.6194C137.199 59.2518 125.948 56.9157 114.69 54.6113C105.943 52.8069 97.1954 51.0096 88.4455 49.2194C87.6239 49.0512 87.214 48.7361 87.2971 47.8178C87.3601 46.8522 87.3601 45.8835 87.2971 44.9179C87.2817 44.5313 87.1174 44.1446 87.0246 43.758C86.9735 43.6138 86.9461 43.4624 86.9434 43.3095C87.0555 42.2462 87.2894 41.1829 87.2933 40.1196C87.3307 30.1001 87.3468 20.08 87.3416 10.0593C87.3416 8.62286 87.388 8.55713 88.7916 8.80845C94.6861 9.86595 100.584 10.9466 106.471 12.0138C111.614 12.9495 116.752 13.8788 121.885 14.8016C127.019 15.7244 132.155 16.6581 137.293 17.6029C141.328 18.3394 145.357 19.1069 149.397 19.7952C150.213 19.9344 150.378 20.3094 150.376 21.0209C150.364 27.6249 150.364 34.2296 150.376 40.8349L150.389 40.8387Z" fill="#9F9F9F"/>
<path d="M10.1738 49.1441V25.6685C10.1738 24.0175 10.4464 23.5941 12.051 23.1417C15.9562 22.0397 19.8678 20.9603 23.7859 19.9035C29.8931 18.2467 36.0138 16.6363 42.1113 14.9447C43.0373 14.6895 43.2713 15.0104 43.3467 15.7856C43.3757 16.1046 43.3911 16.4275 43.3931 16.7523C43.4047 32.2068 43.4156 47.6671 43.4259 63.1332C43.4259 64.6798 43.2964 64.8982 41.8387 65.3332C31.8837 68.3104 21.9255 71.2748 11.964 74.2262C11.7494 74.29 11.5252 74.3152 11.3087 74.3731C10.5353 74.5819 10.2434 74.2456 10.2454 73.4935C10.2454 71.9798 10.228 70.466 10.226 68.9523C10.226 62.3508 10.226 55.7487 10.226 49.146L10.1738 49.1441Z" fill="#9F9F9F"/>
</svg>
